<svg width="500" height="500" viewBox="0 0 500 500" fill="none" xmlns="http://www.w3.org/2000/svg">
<rect width="500" height="500" fill="black"/>
<path d="M120.086 251.9H168.593V259.087C168.765 276.911 158.638 293.667 142.938 302.029C119.958 314.701 87.8593 306.347 74.9569 283.004C55.7028 248.036 78.3439 205.107 119.152 205.168C129.788 205.168 139.248 207.799 147.538 213.054C151.11 215.321 154.256 217.992 156.983 221.072C161.899 226.623 158.036 235.405 150.649 235.405C147.917 235.405 145.323 234.104 143.744 231.859C141.429 228.567 138.549 225.964 135.104 224.049C130.504 221.495 125.188 220.215 119.152 220.215C98.5539 219.961 84.5985 236.031 84.9455 256.528C84.8703 269.821 90.3389 282.047 101.475 288.501C106.65 291.493 112.541 292.985 119.152 292.985C136.679 293.173 148.642 282.247 151.059 265.064H120.086C116.474 265.064 113.548 262.116 113.548 258.482C113.548 254.848 116.476 251.9 120.086 251.9ZM190.244 205.046C185.719 205.046 182.051 208.739 182.051 213.294V299.643C182.051 304.197 185.719 307.89 190.244 307.89C194.769 307.89 198.437 304.197 198.437 299.643V213.294C198.437 208.739 194.769 205.046 190.244 205.046ZM376.215 261.854L372.023 258.147L360.67 248.112L352.346 240.754L349.352 238.106L326.908 218.266C317.354 209.821 305.089 205.168 292.376 205.168H262.131V205.181C234.209 205.159 211.31 228.113 211.9 256.528C211.342 285.256 234.604 308.352 262.922 307.888C289.7 308.437 312.768 285.903 312.363 259.085V251.898H263.856C260.244 251.898 257.318 254.845 257.318 258.479C257.318 262.113 260.246 265.061 263.856 265.061H294.829C292.413 282.244 280.449 293.171 262.922 292.983C256.311 292.983 250.418 291.488 245.245 288.499C234.109 282.044 228.643 269.819 228.716 256.526C228.371 236.377 241.9 220.354 262.131 220.225V220.249H264.509C264.543 220.249 264.579 220.249 264.613 220.251L292.376 220.249C301.45 220.249 310.204 223.568 317.024 229.595L349.321 258.147L329.79 275.414V295.484L360.673 268.182L405.715 308H428.419L383.016 267.865L376.217 261.854H376.215ZM346.696 218.508C353.118 221.575 359.54 224.65 365.943 227.756C367.309 228.418 368.575 228.416 369.946 227.764C379.299 223.321 388.664 218.913 398.026 214.495C399.703 213.704 401.382 212.915 403.061 212.126L379.151 235.996L376.261 256.362L390.886 244.429C390.886 244.429 402.046 253.776 407.086 258.02C407.84 258.655 408.634 258.997 409.616 258.626C410.557 258.269 410.873 257.461 411.152 256.589C415.701 242.378 432 192 432 192C432 192 367.381 209.494 347.057 214.923C346.126 215.172 345.369 215.531 345.286 216.608C345.206 217.631 345.861 218.115 346.693 218.513L346.696 218.508Z" fill="url(#paint0_linear_3702_579)"/>
<defs>
<linearGradient id="paint0_linear_3702_579" x1="67.9986" y1="250" x2="432.002" y2="250" gradientUnits="userSpaceOnUse">
<stop offset="0.11" stop-color="#F38343"/>
<stop offset="0.86" stop-color="#E63932"/>
</linearGradient>
</defs>
</svg>
